<svg xmlns="http://www.w3.org/2000/svg" viewBox="0 0 225.71 328.6"><title>Niño-Preguntandose</title><g style="isolation:isolate"><g id="Layer_6" data-name="Layer 6"><path d="M94.31,210.58s-1.26,8.16-1.89,15.92a120.07,120.07,0,0,0,.16,20.13c1.14,14.12,2.49,27.59,4.74,27.59,3.76,0,2.42,4.27,2.42,4.27s3.87.11,4.66-3.12c.4-1.65,1.59-13,3.55-24.29,2.13-12.32,5-24.61,4.39-23.47-1.16,2.18,5.91,47.68,6.4,49.47s6.83,3.73,5.47,2.72-1-4.12-1-4.12a5.7,5.7,0,0,0,3.08-.68c1-.78,6.34-45.67,4.87-60.89Z" transform="translate(-19.14 31.9)" style="fill:#101011"/></g><g id="Layer_7" data-name="Layer 7"><path d="M141.68,286.31a.44.44,0,0,1,.37.31,7.55,7.55,0,0,1,.34.89c0,.06.31,1.63,0,2.18a8.94,8.94,0,0,1-1,1.21,7.62,7.62,0,0,1-3.58,1.76,24.13,24.13,0,0,1-7.91.68,19.89,19.89,0,0,1-3.64-1.15,15.89,15.89,0,0,1-5.21-3.48l-3.3-3.07s-1.38-2.4,0-3.93l.51.82,1.79,1.32,8.63,4.1,6.4.35,5.18-1.56,1.14-.7Z" transform="translate(-19.14 31.9)" style="fill:#d2d2d3"/><path d="M140.85,287.61s-7.8,8-20.45-1.77" transform="translate(-19.14 31.9)" style="fill:none;stroke:#fcfdfd;stroke-linecap:round;stroke-miterlimit:10;stroke-width:2px"/><path d="M117.75,281.71l.52-5.49c.44-.08.54.34.82.7,2.52,3.13,3.47,2.08,3.5,2.68,0,.2-.56-.61-.54-1.66s-.07-2.47.55-3,3.27-.31,3.58.55a6.37,6.37,0,0,1,.29,1.95s6.58-2.66,10.63-.16,5.15,7.18,4.92,8.35-2.26,2.26-2.26,2.26a13.55,13.55,0,0,1-7.81,1.49C127.35,288.89,120.64,285.84,117.75,281.71Z" transform="translate(-19.14 31.9)" style="fill:#2d2c25"/><path d="M135.66,286.7a41.79,41.79,0,0,1-6.54-.35c-1-.27-5.52-1.68-6.49-2.42s-3.67-2.22-3.83-2.77a8.89,8.89,0,0,1,.28-2.65c.08-.2.81-.68.81-.68-.25-.25-.51-.56-.8-.91s-.38-.78-.82-.7l-.52,5.49c2.89,4.13,9.6,7.18,14.2,7.65a13.55,13.55,0,0,0,7.81-1.49s2-1.09,2.26-2.26a4.29,4.29,0,0,0-.12-1.54S138.63,286.43,135.66,286.7Z" transform="translate(-19.14 31.9)" style="fill:#171710"/><path d="M132.89,277.65s4.14.31,5.38,2a4.73,4.73,0,0,1,.82,3.59,3.64,3.64,0,0,1-4,1.83c-3.05-.39-5.39-.5-5.39-.5s3.36-.47,4.33-1.17a2.9,2.9,0,0,0,1.06-2A3.07,3.07,0,0,0,134,279,2.15,2.15,0,0,1,132.89,277.65Z" transform="translate(-19.14 31.9)" style="fill:#3d3c35"/><path d="M136,278.72s-3.13-1.72-4.69,1.14" transform="translate(-19.14 31.9)" style="fill:none;stroke:#f19800;stroke-linecap:round;stroke-miterlimit:10"/><path d="M131.62,277.62s-4.06-1-4.84,1.66" transform="translate(-19.14 31.9)" style="fill:none;stroke:#f19800;stroke-linecap:round;stroke-miterlimit:10"/><path d="M81.19,285.49a.43.43,0,0,0-.37.32,7,7,0,0,0-.34.88c0,.06-.31,1.63,0,2.18a8.52,8.52,0,0,0,1,1.22,7.68,7.68,0,0,0,3.58,1.75,24.13,24.13,0,0,0,7.91.68,20.14,20.14,0,0,0,3.64-1.15,15.92,15.92,0,0,0,5.2-3.48l3.31-3.07s1.38-2.4,0-3.93l-.51.82-1.8,1.33-8.62,4.09-6.4.35-5.19-1.56-1.13-.7Z" transform="translate(-19.14 31.9)" style="fill:#d2d2d3"/><path d="M82,286.8s7.81,8,20.45-1.77" transform="translate(-19.14 31.9)" style="fill:none;stroke:#fcfdfd;stroke-linecap:round;stroke-miterlimit:10;stroke-width:2px"/><path d="M105.12,280.89l-.52-5.49c-.45-.08-.54.34-.83.7-2.51,3.13-3.47,2.08-3.49,2.68,0,.2.55-.61.54-1.66s.06-2.47-.55-3-3.27-.31-3.58.55a6.37,6.37,0,0,0-.29,2s-6.58-2.66-10.64-.16-5.15,7.18-4.91,8.35,2.26,2.26,2.26,2.26a13.53,13.53,0,0,0,7.8,1.49C95.52,288.07,102.23,285,105.12,280.89Z" transform="translate(-19.14 31.9)" style="fill:#2d2c25"/><path d="M87.21,285.88a40.67,40.67,0,0,0,6.54-.35c1-.27,5.51-1.68,6.49-2.42s3.67-2.22,3.82-2.77a8.6,8.6,0,0,0-.27-2.65c-.08-.2-.81-.68-.81-.68.24-.25.51-.56.79-.91s.38-.78.83-.7l.52,5.49c-2.89,4.14-9.6,7.18-14.21,7.65a13.53,13.53,0,0,1-7.8-1.49s-2-1.09-2.26-2.26a4.3,4.3,0,0,1,.12-1.54S84.24,285.61,87.21,285.88Z" transform="translate(-19.14 31.9)" style="fill:#171710"/><path d="M90,276.83s-4.14.31-5.39,1.95a4.73,4.73,0,0,0-.82,3.59,3.67,3.67,0,0,0,4,1.84c3-.39,5.39-.51,5.39-.51s-3.36-.47-4.33-1.17a2.88,2.88,0,0,1-1.06-2,3.07,3.07,0,0,1,1.06-2.33A2.15,2.15,0,0,0,90,276.83Z" transform="translate(-19.14 31.9)" style="fill:#3d3c35"/><path d="M86.88,277.9S90,276.18,91.56,279" transform="translate(-19.14 31.9)" style="fill:none;stroke:#f19800;stroke-linecap:round;stroke-miterlimit:10"/><path d="M91.25,276.81s4.06-1,4.84,1.65" transform="translate(-19.14 31.9)" style="fill:none;stroke:#f19800;stroke-linecap:round;stroke-miterlimit:10"/><path d="M64.35,288.61c0,4.47,21.21,8.09,47.38,8.09s47.38-3.62,47.38-8.09-21.21-8.09-47.38-8.09S64.35,284.14,64.35,288.61Z" transform="translate(-19.14 31.9)" style="fill:#ebeceb;mix-blend-mode:multiply"/></g><g id="Layer_3" data-name="Layer 3"><g id="Brazo_der_2" data-name="Brazo der 2"><path d="M71,189.69c.23-1,15-4.2,18.64-7.14a2.65,2.65,0,0,0,.52-.55c2-3,11.75-16.21,11.75-16.21l-6.69-2.62s-6.11,12.29-11.31,15c0,0-8.51,5-16.39,6.46" transform="translate(-19.14 31.9)" style="fill:#f4cb86"/><path d="M84.77,178.65s-.53,2.84,3.63,2.57C88.4,181.22,85.74,180.37,84.77,178.65Z" transform="translate(-19.14 31.9)" style="fill:#f1a27d"/><path d="M71,189.69c.23-1,14.11-4.15,17.7-7.1-4.64,2.66-18.29,6.4-18.29,6.4Z" transform="translate(-19.14 31.9)" style="fill:#f1a27d"/></g><g id="Pulover_1" data-name="Pulover 1"><path id="Brazo_1" data-name="Brazo 1" d="M135.07,177.49s6,10.08,6.62,13.78c0,0-1.3,6.08-6,9.72,0,0-5.28-3-6.94-.8s3.46,2.39,3.79,3-6.87,4.41-5.61,7,5-2.79,5.53-2.67-2.7,4.49-1.18,5.39,2.9-4.46,3.44-4.2-1.13,4.2.66,4.07c.82-.06,1.34-3.22,1.48-3.56.24-.6.6,3.2,1.88,2.19.54-.42-.33-3.08-.22-3.4.29-.92,1.86-2.38,1.26-3.69-.36-.8,8.77-10.31,8.51-13.58-.23-2.94-6.36-15.11-6.36-15.11Z" transform="translate(-19.14 31.9)" style="fill:#f4cb86"/><path d="M96.68,173.76l-8.15,36,47,7.1-1.65-36,3.08,3.68a11.8,11.8,0,0,0,9-5.11h0c-6.2-14.5-10.1-18.22-11.75-19.17,0,0-29.34-8.38-35.76-5.14-2.25,1.13-11.53,11.45-12.54,14.79,0,0,3.56,6.66,6.82,8.5" transform="translate(-19.14 31.9)" style="fill:#101011"/><polygon points="77.99 198.65 70.86 241.7 76.59 243.31 77.99 198.65" style="fill:#010300"/><path d="M94.59,182.54s7.34,2.24,12,3.32c1.86.43,4.47,1.23,7.4,1.69,4.56.73,9.33,1,9.33,1l10.79.32-.06-7.44s-6,.12-11.87-.27c-2.35-.15-4.79-.47-7-.74-4.54-.56-8.36-1.45-9.9-1.78-7-1.51-9.55-3-9.55-3Z" transform="translate(-19.14 31.9)" style="fill:#f19700"/><path d="M91.43,196.07s8.57,2.7,13.25,3.79c1.87.43,4.48,1.22,7.41,1.69,4.56.72,9.33,1,9.33,1l13.36.26-.43-7.57s-8.15.3-14.08-.09c-2.34-.15-4.79-.47-7-.73-4.55-.56-8.36-1.45-9.9-1.78-7-1.51-10.35-3.5-10.35-3.5Z" transform="translate(-19.14 31.9)" style="fill:#f19700"/><path d="M88.27,210.09s8.57,2.7,13.25,3.78c1.87.43,4.48,1.23,7.41,1.69,4.56.73,9.33,1,9.33,1l16.93.33-.32-7.78s-11.83.45-17.76.06c-2.34-.15-4.79-.47-7-.74-4.54-.56-8.35-1.45-9.89-1.78-7-1.51-10.35-3.5-10.35-3.5Z" transform="translate(-19.14 31.9)" style="fill:#f19700"/><polygon points="114.65 206.79 112.35 248.33 116.12 248.21 114.65 206.79" style="fill:#010300"/><polygon points="113.91 220.41 114.85 220.43 114.95 213.54 114.28 213.58 113.91 220.41" style="fill:#e08000"/><polygon points="112.35 248.33 116.12 248.21 115.98 241.04 112.69 241.44 112.35 248.33" style="fill:#e08000"/><polygon points="113.05 234.39 115.77 234.21 115.46 227.4 113.52 227.49 113.05 234.39" style="fill:#e08000"/><path d="M86.09,169.3c2.81-1,11.39-12.48,14.13-11.82A26,26,0,0,1,106,160s20.81,2.69,26.48,3.85,13.16,15.19,13.4,15.63c-6.2-14.5-10.1-18.22-11.75-19.17,0,0-29.19-7.73-35.72-5.46C96.13,155.61,88,166.29,86.09,169.3Z" transform="translate(-19.14 31.9)" style="fill:#010300"/><path d="M129.9,161.46c-1.34,2.74-6.72,8.8-12.21,7.66-8.46-1.75-9.35-8.61-9.71-11.55-.06-.45-.07-.71-.07-.71l8.21.62a20.7,20.7,0,0,1,8.17,2.31Z" transform="translate(-19.14 31.9)" style="fill:#f4cb86"/><path id="Brazo_1-2" data-name="Brazo 1" d="M138.72,197.76a15,15,0,0,1-3.06,3.23s-5.28-3-6.94-.8,3.46,2.39,3.79,3-6.87,4.41-5.61,7,5-2.79,5.53-2.67-2.7,4.49-1.18,5.39,2.9-4.46,3.44-4.2-1.13,4.2.66,4.07c.82-.06,1.34-3.22,1.48-3.56.24-.6.6,3.2,1.88,2.19.54-.42-.33-3.08-.22-3.4.29-.92,1.86-2.38,1.26-3.69" transform="translate(-19.14 31.9)" style="fill:#f4cb86"/></g><path d="M121.57,156.3s-.22,3.21.89,4.13-10.19-.21-7.64-1.2c1.29-.5,3-4.27,2.39-5.51s4.77,1.4,4.77,1.4A2.08,2.08,0,0,0,121.57,156.3Z" transform="translate(-19.14 31.9)" style="fill:#f4cb86"/><path d="M119.65,162.9a1.89,1.89,0,0,1-2.77-.47" transform="translate(-19.14 31.9)" style="fill:#f1a27d"/><path d="M121.59,154.83a12.09,12.09,0,0,1,0,1.34c0,.43-.06.85,0,1.26a10.37,10.37,0,0,0,0,1.24,9.81,9.81,0,0,0,.08,1.29l0,0a4.85,4.85,0,0,1-.48-2.57,12.15,12.15,0,0,1,.48-2.6Z" transform="translate(-19.14 31.9)" style="fill:#f1a27d"/><path d="M144.64,191.69a1.22,1.22,0,0,1-.54.7,1.41,1.41,0,0,1-1,.16,1.54,1.54,0,0,1-.78-.56,3.62,3.62,0,0,1-.19-.4,2.18,2.18,0,0,1,0-.44l.05,0a2.63,2.63,0,0,0,.45.59,1.41,1.41,0,0,0,.63.35,1.5,1.5,0,0,0,1.34-.41Z" transform="translate(-19.14 31.9)" style="fill:#f2b37a"/><path d="M131.39,163.86a30.64,30.64,0,0,1-2.63,5.72,31.43,31.43,0,0,1-8.87,9.57s-2.29,26.89-2.34,27.06,6.5.61,6.5.61L133,163.11Z" transform="translate(-19.14 31.9)" style="stroke:#050006;stroke-miterlimit:10;opacity:0.32"/><path d="M105.34,158.06a30.85,30.85,0,0,0,1.09,6.2,31.41,31.41,0,0,0,6.13,11.52s-4.65,26.57-4.65,26.76-6.43-1.07-6.43-1.07L104,156.92Z" transform="translate(-19.14 31.9)" style="stroke:#050006;stroke-miterlimit:10;opacity:0.32"/><path d="M132.24,162c.08-.13.19-.27.19-.27.62-.89.93-1.35,1-1.32,1.14.31-5.35,16.94,1.29,23.66.29.29.55.51.67.61.13,7.19.28,12.43.44,16.59a9.45,9.45,0,0,1-.69,4.72c-2.16,4.56-8.35,5.65-10.79,6.08-2.68.47-7,.7-7.42-.56a.83.83,0,0,1,0-.58c.51-1.37,1.72-11.1,3.77-31a14.45,14.45,0,0,0,1.71-1.24C128.43,173.69,131.26,163.41,132.24,162Z" transform="translate(-19.14 31.9)" style="stroke:#050006;stroke-miterlimit:10"/><path d="M104.6,156.13c0-.15-.12-.32-.12-.32-.39-1-.59-1.52-.68-1.52-1.18,0,1.16,17.73-6.89,22.67-.35.22-1.49.07-1.63.13-1.84,7-2.4,12.31-3.54,16.31a9.35,9.35,0,0,0-.46,4.75c1,4.95,6.76,7.48,9,8.47,2.49,1.1,6.62,2.35,7.34,1.23a.84.84,0,0,0,.1-.57c-.17-1.45,1-11.19,3.72-31a15.85,15.85,0,0,1-1.37-1.61C105.51,168.41,105.2,157.76,104.6,156.13Z" transform="translate(-19.14 31.9)" style="stroke:#050006;stroke-miterlimit:10"/></g><g id="Layer_2" data-name="Layer 2"><path d="M182.44,117.3s7.16,9.14,9,13.32,3.47,7.39,3.68,11.76a7.38,7.38,0,0,1-3.28,6.46,10.52,10.52,0,0,1-5.39,1.92c-3.06.13-10.44-2-10.44-2s-12.88-4.87-13.84-5.88-3.44-4.31-3.44-4.31L181,114.73Z" transform="translate(-19.14 31.9)" style="fill:#101011"/><path d="M191.7,145.07a14.1,14.1,0,0,1-3.66,2.27,18.2,18.2,0,0,1-2.08.75,18.56,18.56,0,0,1-2.18.41,20.91,20.91,0,0,1-4.4.1c-.73-.07-1.45-.16-2.17-.29s-1.43-.26-2.14-.45a31.22,31.22,0,0,1-4.11-1.43,27.57,27.57,0,0,1-3.8-2.1,20.11,20.11,0,0,1-6-6.05l.13-.15a32.24,32.24,0,0,0,14.31,7.8,27.66,27.66,0,0,0,8.14,1,20,20,0,0,0,2-.17c.67-.13,1.35-.24,2-.43a20.24,20.24,0,0,0,3.85-1.43Z" transform="translate(-19.14 31.9)" style="fill:#020300"/><path d="M184.34,110.82c-1.56,2.42-8.3,10.33-6.76,15.94a17.26,17.26,0,0,1,.62,2.85c.21,1.69.64,5.19-1.17,8.35-2.26,3.94-7.58,6.57-11.17,5.41-1.3-.42-3.61-.92-3.61-.92a6.12,6.12,0,0,0-.71,1,10.12,10.12,0,0,1-1.07,1.61c-2.7,3.76-19.64,14.39-38.76,11.72-5.9-.82-20.36-4-30.32-17-11.11-14.56-8.8-31.17-7.93-37.46.68-4.9,2.94-19.62,14.91-31.35C113,56.59,139.2,49.61,160.3,62,180.91,74,190.67,101,184.34,110.82Z" transform="translate(-19.14 31.9)" style="fill:#f4cb86"/><path d="M159.53,137.29c-2.09-1.89,2.69,3.81,4.05,4.19,3.45,1,4.38,2.16,9.64-1.95,5-3.89,4.28-11.68,4.28-11.68s-4.27,9.49-6,10.7S164.83,142.05,159.53,137.29Z" transform="translate(-19.14 31.9)" style="fill:#f1a27d"/><path d="M171.56,136.45a8.32,8.32,0,0,0-.44-1.54,3.56,3.56,0,0,0-.75-1.21,1.07,1.07,0,0,0-.93-.38,1.74,1.74,0,0,0-.94.58l0,0-.05,0a4.23,4.23,0,0,0-.79,1.12,8.56,8.56,0,0,0-.61,1.42c-.17.5-.31,1-.44,1.55l-.19.81c0,.27-.1.55-.17.83h-.08c0-.56,0-1.12,0-1.67a13,13,0,0,1,.26-1.66,9.06,9.06,0,0,1,.55-1.59,4.84,4.84,0,0,1,.95-1.39h0a2.36,2.36,0,0,1,1.45-.79,1.69,1.69,0,0,1,1.45.71,4.81,4.81,0,0,1,.8,3.13Z" transform="translate(-19.14 31.9)" style="fill:#f1a27d"/><path d="M185.38,86c4-1.56-2.16-3.61-2.16-3.61a13.81,13.81,0,0,0,1.1-7.45c-.59-4.14-4.72,4.54-4.72,4.54-5.69-29.4-53.42-39.94-75.41-21.5S88.07,92.47,88.07,92.47s8.8-4,26-14.2c0,0-7.45,7.58-5.19,8.34s8.82-1.62,35.7-2.13c0,0-6.22,5.7-2.91,6.93s17-.91,17-.91-5.7,16.15.13,14.31a15.19,15.19,0,0,0,8.16-5.69s13.32,10.07,5.76,30.31c28.48-27.35,11.68-41.75,11.68-41.75S181.34,87.52,185.38,86Z" transform="translate(-19.14 31.9)" style="fill:#282828"/><path d="M108.52,86.3c2.24.71,8.76-.82,35.13-1.76l-.2.2a48.06,48.06,0,0,1,8-4.16C133.32,79.79,108.52,86.3,108.52,86.3Z" transform="translate(-19.14 31.9)" style="fill:#111010"/><path d="M140.85,90.59a1.28,1.28,0,0,0,.78.68c3.12,1.21,16.05-.63,16.05-.63s0,.13-.12.35c2.25-2.68,4.88-5.64,4.88-5.64C150.27,91.35,141,90.6,140.85,90.59Z" transform="translate(-19.14 31.9)" style="fill:#090708"/><path d="M157,104.64a1.34,1.34,0,0,0,1,.19c3.29-.56,13.47-8.75,13.47-8.75s0,.13.07.37c.56-3.46,1.32-7.35,1.32-7.35C165.49,100.47,157.11,104.59,157,104.64Z" transform="translate(-19.14 31.9)" style="fill:#090708"/><path d="M108.5,65.49a21.26,21.26,0,0,1,3-4.83c.64-.86,2.72-3.36,4.22-4a36.3,36.3,0,0,1,4.82-1.62,8.07,8.07,0,0,1,3.69,0l5.9,1.33a7.37,7.37,0,0,1,1.46.49c2.07,1,7.78,3.85,9.49,7.37,3.44,7.09-.13,11.33-2.2,13a.78.78,0,0,0,.2,1.31c7.1,3,37,21.39,43,39.24l.38,1.1,3.4-3.65s12-16.18.18-42.52C175.4,49,146.6,42.54,141,41.49a13.59,13.59,0,0,0-1.8-.21c-3.88-.19-19.82-.79-26.32,1.9C100.52,48.32,91,61.63,88.19,80.44c0,0,12-7.9,19.18-8.37a1.05,1.05,0,0,0,1-1.1A28,28,0,0,1,108.5,65.49Z" transform="translate(-19.14 31.9)" style="fill:#101011"/><path d="M173.44,56.37c5.68,4.38,9.85,11.26,12.81,16.9,5,9.48,4.86,20.67,5,21.6.05.53-.58,9.7-2.5,14.68a30.62,30.62,0,0,1-6.28,9.38s-1.48-3.8-2-4.87c-2.34-4.88-13.7-16.13-13.8-16.63s-12.59-8.91-22.76-16.35c-9.43-6.91-33.58-11.58-40.84-8.1-7.75,3.71-14.59,6.85-14.59,6.85S94.4,70.07,106,67.62c8.22-1.73,22.89.62,27.29,1,4.1.38,20.27,8.34,22.44,9.41.16.08.31.16.47.26l13.6,8.38a6,6,0,0,0,9.06-6c0-.11,0-.21-.05-.32-1.77-10.71-6-16.07-10-20.66-4.72-5.37-17.13-15.35-17.13-15.35s9.44,4.06,12.49,5.6A39.87,39.87,0,0,1,173.44,56.37Z" transform="translate(-19.14 31.9)" style="fill:#010300"/><path d="M107.2,70.33a1.73,1.73,0,0,0,1.58,1.19c4.57.13,19.82,2,26.73,5.75,5.9,3.15,6.85-1.46,6.68-5.1-.05-1.14-1.3-1.39-2.13-1.81-4.92-2.43-22-8.49-29.12-7.89-.55.05-1.2-.09-1.46.27C107.36,65.73,106.52,68.23,107.2,70.33Z" transform="translate(-19.14 31.9)" style="fill:#f6b337"/><path d="M160.63,123.23" transform="translate(-19.14 31.9)" style="fill:none"/><path d="M170.63,109" transform="translate(-19.14 31.9)" style="fill:none"/><path d="M138.93,102.21c5.32-1,7.08,8.25,7.08,8.25C144.22,106.52,138.93,102.21,138.93,102.21Z" transform="translate(-19.14 31.9)" style="fill:#5f260d"/><path d="M98.94,95.87s6.67-6.65,10.5-2.81C109.44,93.06,102.64,93.63,98.94,95.87Z" transform="translate(-19.14 31.9)" style="fill:#5f260d"/><path id="Nariz_sombra_1" data-name="Nariz sombra 1" d="M113.15,114.8a7.42,7.42,0,0,0,9,3.31c-1.71,2.33-6.46,2.55-8,1.08-.77-.73-1.52-3.47-1-4.39" transform="translate(-19.14 31.9)" style="fill:#f1a27d"/><path d="M105.11,120.79" transform="translate(-19.14 31.9)" style="fill:#f2b37a"/><path id="muelle_1" data-name="muelle 1" d="M97.85,19.85c6.78,2.75,13.39,4.53,20.19,17.9s-3.09,6.8-3.09,6.8A28.45,28.45,0,0,0,97,22" transform="translate(-19.14 31.9)" style="fill:#d7eefa"/><path id="muelle_1-2" data-name="muelle 1" d="M152.73,28.57c1.11,9.07,1.19,5.18-.61,20.12-.69,5.77-3.81,8.22-5.1,6.6a5,5,0,0,1-.46-5.39c2.16-4.24,4-6.9,3.55-19.5" transform="translate(-19.14 31.9)" style="fill:#d7eefa"/><path id="pelusa1" d="M76.17,29.27a12.86,12.86,0,1,0,1.11-18.16A12.87,12.87,0,0,0,76.17,29.27Z" transform="translate(-19.14 31.9)" style="fill:#e08000"/><path id="pelusa1_sombra" data-name="pelusa1 sombra" d="M75.3,24.9c1.56,3,7,6.26,12,5.55,4.77-.68,9.07-4,9.58-5.18A12,12,0,0,0,80.27,10C74.39,13.05,72.24,19,75.3,24.9Z" transform="translate(-19.14 31.9)" style="fill:#f19700"/><path id="pelusa2" d="M140.15,21.59A12.86,12.86,0,1,0,150,6.29,12.84,12.84,0,0,0,140.15,21.59Z" transform="translate(-19.14 31.9)" style="fill:#e08000"/><path id="pelusa1_sombra-2" data-name="pelusa1 sombra" d="M142.08,23.39c1.56,3,6.95,6.25,12,5.54,4.78-.68,9.07-4,9.58-5.17A12,12,0,0,0,147.06,8.48C141.18,11.53,139,17.51,142.08,23.39Z" transform="translate(-19.14 31.9)" style="fill:#f19700"/><path d="M161.43,142.09s-8.19,7.66-13.23,9.69c-2.19.88-4.81,1.75-7.49,2.52a41.91,41.91,0,0,1-9.89,1.79c-4,0-16.48-1.85-21.43-4.07s-13.26-9.3-14.65-10.8C93.67,140.06,89,132.8,89,132.8a49.63,49.63,0,0,0,7,8.38,75.81,75.81,0,0,0,10.3,7.61c5.56,3.42,11.18,4.68,17.36,5.15a51.2,51.2,0,0,0,16.87-1.61c5-1.3,12.24-5.31,14.07-7s5.12-4.78,5.12-4.78S159.92,141,161.43,142.09Z" transform="translate(-19.14 31.9)" style="fill:#f1a27d"/><path d="M101.33,101.48c-.48,2.49,0,4.68,1.09,4.89s2.37-1.63,2.86-4.12,0-4.68-1.1-4.89S101.82,99,101.33,101.48Z" transform="translate(-19.14 31.9)" style="fill:#300d07"/><path d="M104.72,98.72c-.34,0-.67.55-.76,1.31s.12,1.42.45,1.45" transform="translate(-19.14 31.9)" style="fill:#fff"/><path d="M136.36,112.24c-.49,2.49,0,4.69,1.09,4.89s2.37-1.62,2.86-4.12,0-4.68-1.1-4.88S136.84,109.75,136.36,112.24Z" transform="translate(-19.14 31.9)" style="fill:#300d07"/><path d="M139.75,109.48c-.34,0-.67.56-.76,1.32s.12,1.42.45,1.45" transform="translate(-19.14 31.9)" style="fill:#fff"/><path d="M110.33,134.25s.61-.72,2.64.74,2.86,4.7.43,3.74S110,135,110.33,134.25Z" transform="translate(-19.14 31.9)" style="fill:#921221"/><path d="M113.4,77.76c-8.08,3.59-24.86,14.5-24.86,14.5l26.3-14.36A3.78,3.78,0,0,0,113.4,77.76Z" transform="translate(-19.14 31.9)" style="fill:#111010"/></g><g id="Layer_5" data-name="Layer 5"><g id="Layer_4" data-name="Layer 4"><path id="Brazo_1-3" data-name="Brazo 1" d="M73.17,183.33a17.21,17.21,0,0,1-4.48,1.23s-3.41-5-5.88-3.77,2.06,3.67,2.09,4.35-8.11,1-8.1,3.8,5.72-.31,6.14,0-4.4,2.84-3.43,4.32,4.56-2.73,4.94-2.26-2.86,3.28-1.2,3.95c.76.3,2.62-2.31,2.89-2.55.49-.43-.87,3.14.73,2.8.67-.15,1.06-2.92,1.3-3.16.66-.7,2.71-1.31,2.75-2.76" transform="translate(-19.14 31.9)" style="fill:#f4cb86"/><path d="M65.22,186.07s-1,2.4,2.68,3C67.9,189.1,65.72,187.78,65.22,186.07Z" transform="translate(-19.14 31.9)" style="fill:#f1a27d"/><path d="M104.06-31.36a4.56,4.56,0,0,1,1.09-.34,9.33,9.33,0,0,1,1.58-.2,9.85,9.85,0,0,1,1.84.12,6.63,6.63,0,0,1,1.86.54,5.36,5.36,0,0,1,1.63,1.11,4.91,4.91,0,0,1,1.18,1.82,7.67,7.67,0,0,1,.62,3.13,9.36,9.36,0,0,1-.49,2.72,16.39,16.39,0,0,1-1.09,2.52c-.43.82-.83,1.65-1.2,2.51a12.61,12.61,0,0,0-.81,2.68,8,8,0,0,0,.07,3.1c.06.32,0,.48-.24.48a2,2,0,0,1-.81-.23,3.82,3.82,0,0,1-.91-.63,2.1,2.1,0,0,1-.55-.71,6,6,0,0,1-.39-2.68A8,8,0,0,1,108-17.7a17.14,17.14,0,0,1,1-2.1,18.77,18.77,0,0,0,1.06-2.1,8.57,8.57,0,0,0,.64-2.32,6.22,6.22,0,0,0-.32-2.73,6.58,6.58,0,0,0-.63-1.45,3.91,3.91,0,0,0-1.11-1.28,3.49,3.49,0,0,0-1.63-.65,4,4,0,0,0-2.19.43A6.21,6.21,0,0,0,103-28.57a6.16,6.16,0,0,0-1.12,1.68,6.67,6.67,0,0,0-.53,1.76,14.28,14.28,0,0,0-.16,1.62c0,.5,0,.91,0,1.24a.91.91,0,0,1-.14.62,1.12,1.12,0,0,1-.72.38q-.3,0-1-.72a2.52,2.52,0,0,1-.32-1.54,8.34,8.34,0,0,1,.51-2.65,9.84,9.84,0,0,1,1.61-2.89A7.73,7.73,0,0,1,104.06-31.36Zm5.58,22.55a2,2,0,0,1,1,0,2,2,0,0,1,.73.36,2.44,2.44,0,0,1,.5.57,2.94,2.94,0,0,1,.3.58A3.27,3.27,0,0,1,112.42-6a2.26,2.26,0,0,1-.27,1,1.66,1.66,0,0,1-.58.62,1.88,1.88,0,0,1-.74.26,1.39,1.39,0,0,1-.91-.12,2.34,2.34,0,0,1-.67-.54,2.79,2.79,0,0,1-.44-.75,4.69,4.69,0,0,1-.24-.77,2.85,2.85,0,0,1,0-1,2.62,2.62,0,0,1,.31-.74,2.12,2.12,0,0,1,.41-.49A1.22,1.22,0,0,1,109.64-8.81Z" transform="translate(-19.14 31.9)" style="fill:#1e120d"/><path d="M224.56-3.88a11.86,11.86,0,0,1,2.51,1.17,22.62,22.62,0,0,1,3.15,2.25,24.27,24.27,0,0,1,3.1,3.2,17.26,17.26,0,0,1,2.45,4,13.83,13.83,0,0,1,1.1,4.65,12.27,12.27,0,0,1-.86,5.18,18.87,18.87,0,0,1-4,6.63,23.38,23.38,0,0,1-5.33,4.06A41.32,41.32,0,0,1,220.61,30c-2.1.76-4.19,1.6-6.24,2.53A30.5,30.5,0,0,0,208.52,36a19.2,19.2,0,0,0-4.92,5.67c-.43.66-.84.81-1.24.45a4.67,4.67,0,0,1-1.06-1.72,9.77,9.77,0,0,1-.6-2.61,5.22,5.22,0,0,1,.17-2.18,15.18,15.18,0,0,1,3.69-5.43A19.25,19.25,0,0,1,209.31,27a43.47,43.47,0,0,1,5.31-2A46.37,46.37,0,0,0,220,23a21.36,21.36,0,0,0,4.93-3.11,15,15,0,0,0,3.89-5.4A16.49,16.49,0,0,0,230,10.84a10.18,10.18,0,0,0,.1-4.11,8.47,8.47,0,0,0-1.85-3.83A9.7,9.7,0,0,0,223.67.1,14.58,14.58,0,0,0,218-.68,14.84,14.84,0,0,0,213.26.47a16.54,16.54,0,0,0-3.82,2.29c-1.1.91-2.08,1.78-2.93,2.63S205,7,204.41,7.55s-1,.88-1.26.89a2.83,2.83,0,0,1-1.92-.51c-.34-.34-.54-1.3-.58-2.91q0-1.14,1.95-3.27a20.33,20.33,0,0,1,5.23-3.92,24.43,24.43,0,0,1,7.61-2.53A18.93,18.93,0,0,1,224.56-3.88ZM197.7,45.58a5.1,5.1,0,0,1,1.87,1.68,4.66,4.66,0,0,1,.71,1.85,5.41,5.41,0,0,1,0,1.84,8.48,8.48,0,0,1-.4,1.52,7.66,7.66,0,0,1-1.76,2.68A5.81,5.81,0,0,1,196,56.43a4,4,0,0,1-2,.15,4.37,4.37,0,0,1-1.75-.75,3.3,3.3,0,0,1-1.43-1.68,5.65,5.65,0,0,1-.32-2.06,6.68,6.68,0,0,1,.44-2.08,9.67,9.67,0,0,1,.84-1.76,6.61,6.61,0,0,1,1.69-1.78,6.15,6.15,0,0,1,1.77-.83,5.41,5.41,0,0,1,1.53-.21A3.31,3.31,0,0,1,197.7,45.58Z" transform="translate(-19.14 31.9)" style="fill:#1e120d"/><path d="M243.34,43.16a5.09,5.09,0,0,1,.61,1.07,9.71,9.71,0,0,1,.57,1.63,10.44,10.44,0,0,1,.31,2,8.07,8.07,0,0,1-.14,2.08,6.27,6.27,0,0,1-.79,2,5.62,5.62,0,0,1-1.64,1.66,8.69,8.69,0,0,1-3.16,1.38,10.26,10.26,0,0,1-3,.1,17.07,17.07,0,0,1-2.9-.56c-1-.26-1.93-.49-2.91-.68a13.75,13.75,0,0,0-3-.24,8.63,8.63,0,0,0-3.24.79q-.49.2-.57-.15a2,2,0,0,1,.06-.89,4.12,4.12,0,0,1,.45-1.1,2.15,2.15,0,0,1,.62-.75,6.76,6.76,0,0,1,2.73-1,8.56,8.56,0,0,1,2.53.08,19.54,19.54,0,0,1,2.45.62,19.34,19.34,0,0,0,2.46.64,9.6,9.6,0,0,0,2.58.13,6.55,6.55,0,0,0,2.8-1,7.69,7.69,0,0,0,1.38-1,4.44,4.44,0,0,0,1.09-1.46,3.83,3.83,0,0,0,.31-1.87,4.27,4.27,0,0,0-1-2.2,6.49,6.49,0,0,0-1.85-1.73,6.7,6.7,0,0,0-2-.8,7.54,7.54,0,0,0-2-.15q-.94.07-1.74.21l-1.31.24q-.53.12-.69,0a1.23,1.23,0,0,1-.57-.67,2.42,2.42,0,0,1,.54-1.21,2.72,2.72,0,0,1,1.55-.68,8.84,8.84,0,0,1,2.9-.09,10.86,10.86,0,0,1,3.41,1A8.44,8.44,0,0,1,243.34,43.16ZM220.92,54.24a2.4,2.4,0,0,1,.25,1.09,2.05,2.05,0,0,1-.22.85,2.66,2.66,0,0,1-.48.66,4.57,4.57,0,0,1-.54.45,3.3,3.3,0,0,1-1.33.52,2.55,2.55,0,0,1-1.08-.06,1.92,1.92,0,0,1-.78-.47,2,2,0,0,1-.44-.72,1.53,1.53,0,0,1-.09-1,2.5,2.5,0,0,1,.42-.83,2.83,2.83,0,0,1,.69-.64,3.63,3.63,0,0,1,.75-.42,3.09,3.09,0,0,1,1.07-.22,2.58,2.58,0,0,1,.86.16,2.31,2.31,0,0,1,.61.31A1.79,1.79,0,0,1,220.92,54.24Z" transform="translate(-19.14 31.9)" style="fill:#1e120d"/><path d="M25.5,28.39a12.5,12.5,0,0,1,2.22-1.66A22.44,22.44,0,0,1,31.19,25a25.18,25.18,0,0,1,4.29-1.23,17.6,17.6,0,0,1,4.69-.27,13.83,13.83,0,0,1,4.62,1.22A12.39,12.39,0,0,1,49,27.93a18.78,18.78,0,0,1,4,6.66A23.47,23.47,0,0,1,54,41.2a42.38,42.38,0,0,1-.45,6.63q-.48,3.31-.71,6.69a29.92,29.92,0,0,0,.3,6.8,19.39,19.39,0,0,0,2.68,7c.38.68.32,1.12-.18,1.3a4.66,4.66,0,0,1-2,.13,9.37,9.37,0,0,1-2.58-.7,5.31,5.31,0,0,1-1.85-1.18,15,15,0,0,1-3.05-5.81,19.2,19.2,0,0,1-.52-5.67,41.78,41.78,0,0,1,.7-5.64A47.7,47.7,0,0,0,47,45.08a21.32,21.32,0,0,0-.42-5.81,15.06,15.06,0,0,0-2.93-6,16.77,16.77,0,0,0-2.61-2.81,10.08,10.08,0,0,0-3.57-2,8.31,8.31,0,0,0-4.25-.17,9.65,9.65,0,0,0-4.65,2.75,14.48,14.48,0,0,0-3.35,4.62A15,15,0,0,0,24,40.41a16.3,16.3,0,0,0,.23,4.45,38.39,38.39,0,0,0,.94,3.83c.35,1.15.65,2.11.91,2.86s.33,1.27.19,1.53a2.81,2.81,0,0,1-1.35,1.46c-.46.14-1.4-.15-2.83-.86-.68-.36-1.34-1.45-2-3.26a20.2,20.2,0,0,1-1-6.46,24.57,24.57,0,0,1,1.35-7.91A19.06,19.06,0,0,1,25.5,28.39Zm31,47a5.21,5.21,0,0,1,2.36-.86,4.65,4.65,0,0,1,2,.25,5.57,5.57,0,0,1,1.6.89,9.74,9.74,0,0,1,1.16,1.07,7.75,7.75,0,0,1,1.53,2.82A5.93,5.93,0,0,1,65.27,82a4,4,0,0,1-.83,1.87A4.49,4.49,0,0,1,63,85a3.32,3.32,0,0,1-2.16.47,5.51,5.51,0,0,1-2-.69,6.56,6.56,0,0,1-1.63-1.36,10.3,10.3,0,0,1-1.15-1.57,6.39,6.39,0,0,1-.78-2.33,6.2,6.2,0,0,1,.1-2,5.25,5.25,0,0,1,.54-1.45A3,3,0,0,1,56.49,75.38Z" transform="translate(-19.14 31.9)" style="fill:#1e120d"/></g></g></g></svg>